<?xml version="1.0" standalone="no"?>
<!DOCTYPE svg PUBLIC "-//W3C//DTD SVG 20010904//EN"
 "http://www.w3.org/TR/2001/REC-SVG-20010904/DTD/svg10.dtd">
<svg version="1.0" xmlns="http://www.w3.org/2000/svg"
 width="512.000000pt" height="512.000000pt" viewBox="0 0 512.000000 512.000000"
 preserveAspectRatio="xMidYMid meet">
<metadata>
Created by potrace 1.11, written by Peter Selinger 2001-2013
</metadata>
<g transform="translate(0.000000,512.000000) scale(0.100000,-0.100000)"
fill="#000000" stroke="none">
<path d="M0 2560 l0 -2560 2560 0 2560 0 0 160 0 160 -2400 0 -2400 0 0 2400
0 2400 -160 0 -160 0 0 -2560z"/>
<path d="M4396 4755 c-44 -25 -81 -45 -82 -45 -1 0 -41 -22 -89 -50 -48 -27
-88 -50 -90 -50 -2 0 -36 -18 -75 -41 -40 -22 -115 -64 -169 -94 -134 -74
-340 -188 -416 -232 -22 -12 -55 -29 -72 -37 -18 -8 -33 -19 -33 -23 0 -5 84
-59 188 -121 103 -62 193 -116 200 -121 10 -6 -27 -75 -148 -277 -89 -148
-164 -271 -166 -273 -2 -2 -34 3 -72 13 -37 9 -76 19 -87 21 -11 3 -261 65
-557 140 l-536 134 -671 -670 c-369 -369 -671 -673 -671 -676 0 -6 216 -223
222 -223 3 0 278 272 611 605 l605 605 367 -91 c202 -50 374 -92 383 -94 10
-3 53 -13 96 -25 44 -11 89 -22 100 -25 12 -2 94 -23 183 -46 89 -23 168 -39
175 -36 11 4 183 283 425 691 l33 54 205 -124 205 -124 1 58 c0 31 2 143 4
247 8 388 16 975 13 975 -2 0 -39 -20 -82 -45z"/>
<path d="M3998 3066 l-158 -263 0 -1081 0 -1082 320 0 320 0 -2 1251 -3 1251
-155 94 c-85 51 -157 94 -160 94 -3 0 -76 -119 -162 -264z"/>
<path d="M2152 2757 l-232 -232 0 -943 0 -942 320 0 320 0 0 1155 c0 635 -3
1155 -7 1156 -14 1 -37 6 -99 23 -34 9 -64 16 -66 16 -2 0 -108 -105 -236
-233z"/>
<path d="M2880 1754 l0 -1114 320 0 320 0 0 1034 0 1033 -320 80 -320 80 0
-1113z"/>
<path d="M1333 1938 l-262 -262 -51 52 c-28 29 -53 52 -55 52 -3 0 -5 -256 -5
-570 l0 -570 320 0 320 0 0 780 c0 429 -1 780 -3 780 -1 0 -120 -118 -264
-262z"/>
</g>
</svg>
